<svg width="40" height="38" viewBox="0 0 40 38" fill="none" xmlns="http://www.w3.org/2000/svg">
<path d="M12.5596 0.00122486C13.8196 0.0395442 15.0396 0.259544 16.2216 0.661544H16.3396C16.4196 0.699544 16.4796 0.741544 16.5196 0.779544C16.9616 0.921544 17.3796 1.08154 17.7796 1.30154L18.5396 1.64154C18.8396 1.80154 19.1996 2.09954 19.3996 2.22154C19.5996 2.33954 19.8196 2.46154 19.9996 2.59954C22.2216 0.901544 24.9196 -0.0184558 27.6996 0.00122486C28.9616 0.00122486 30.2216 0.179544 31.4196 0.581544C38.8016 2.98154 41.4616 11.0815 39.2396 18.1615C37.9796 21.7795 35.9196 25.0815 33.2216 27.7795C29.3596 31.5195 25.1216 34.8395 20.5596 37.6995L20.0596 38.0015L19.5396 37.6795C14.9616 34.8395 10.6996 31.5195 6.80161 27.7595C4.12161 25.0615 2.05961 21.7795 0.779606 18.1615C-1.48039 11.0815 1.17961 2.98154 8.64161 0.539544C9.22161 0.339544 9.81961 0.199544 10.4196 0.121544H10.6596C11.2216 0.0395442 11.7796 0.00122486 12.3396 0.00122486H12.5596ZM30.3796 6.32154C29.5596 6.03954 28.6596 6.48154 28.3596 7.32154C28.0796 8.16154 28.5196 9.08154 29.3596 9.37954C30.6416 9.85954 31.4996 11.1215 31.4996 12.5195V12.5815C31.4616 13.0395 31.5996 13.4815 31.8796 13.8215C32.1596 14.1615 32.5796 14.3595 33.0196 14.4015C33.8396 14.3795 34.5396 13.7215 34.5996 12.8795V12.6415C34.6596 9.83954 32.9616 7.30154 30.3796 6.32154Z" fill="#967259"/>
</svg>
