<svg width="18" height="18" viewBox="0 0 18 18" fill="none" xmlns="http://www.w3.org/2000/svg">
<path d="M3 8.79426C3 8.50949 3.21162 8.27415 3.48617 8.2369L3.5625 8.23176L13.4505 8.23221L9.87826 4.67457C9.65812 4.45537 9.65735 4.09922 9.87655 3.87907C10.0758 3.67894 10.3883 3.66012 10.6088 3.82303L10.672 3.87736L15.2095 8.39536C15.2386 8.42425 15.2638 8.45552 15.2852 8.48855C15.2912 8.49849 15.2973 8.50866 15.3032 8.51903C15.3085 8.52792 15.3134 8.53715 15.318 8.54649C15.3243 8.56007 15.3305 8.5741 15.3361 8.58842C15.3407 8.59946 15.3445 8.6102 15.348 8.62102C15.3522 8.63444 15.3562 8.64874 15.3597 8.66326C15.3622 8.6734 15.3643 8.68315 15.3661 8.69295C15.3686 8.70752 15.3707 8.7226 15.3722 8.73786C15.3735 8.7495 15.3743 8.76103 15.3747 8.77258C15.3749 8.77958 15.375 8.7869 15.375 8.79426L15.3747 8.81605C15.3743 8.82709 15.3735 8.83812 15.3725 8.84913L15.375 8.79426C15.375 8.82976 15.3717 8.86449 15.3654 8.89816C15.364 8.9062 15.3622 8.91446 15.3603 8.92268C15.3563 8.93961 15.3517 8.95592 15.3464 8.97191C15.3438 8.97985 15.3407 8.98833 15.3375 8.99676C15.3309 9.01368 15.3238 9.02982 15.3159 9.04553C15.3122 9.05292 15.3082 9.06066 15.3039 9.06832C15.2968 9.08081 15.2896 9.09269 15.2819 9.10426C15.2765 9.11245 15.2706 9.12097 15.2643 9.12936L15.2594 9.13585C15.2443 9.15565 15.2278 9.17441 15.2102 9.19201L15.2096 9.19253L10.6721 13.7113C10.4519 13.9305 10.0958 13.9298 9.87658 13.7096C9.67729 13.5095 9.65979 13.197 9.82363 12.9771L9.87823 12.9141L13.449 9.35721L3.5625 9.35676C3.25184 9.35676 3 9.10492 3 8.79426Z" fill="white"/>
</svg>
