<svg width="26" height="26" viewBox="0 0 26 26" fill="none" xmlns="http://www.w3.org/2000/svg">
<path fill-rule="evenodd" clip-rule="evenodd" d="M13.6104 6.34848C13.7542 6.34732 13.8927 6.40336 13.9953 6.50429C14.0978 6.60521 14.1561 6.74274 14.1573 6.88662L14.201 12.3118L19.6262 12.2681C19.7701 12.2669 19.9085 12.3229 20.0111 12.4239C20.1136 12.5248 20.1719 12.6623 20.1731 12.8062C20.1742 12.9501 20.1182 13.0885 20.0173 13.1911C19.9163 13.2937 19.7788 13.3519 19.6349 13.3531L14.2097 13.3968L14.2535 18.822C14.2546 18.9659 14.1986 19.1043 14.0977 19.2069C13.9968 19.3095 13.8592 19.3677 13.7153 19.3689C13.5715 19.3701 13.433 19.314 13.3304 19.2131C13.2279 19.1122 13.1696 18.9746 13.1685 18.8307L13.1247 13.4056L7.69954 13.4493C7.55566 13.4505 7.4172 13.3944 7.31464 13.2935C7.21208 13.1926 7.15381 13.0551 7.15265 12.9112C7.15149 12.7673 7.20754 12.6288 7.30846 12.5263C7.40938 12.4237 7.54691 12.3654 7.69079 12.3643L13.116 12.3205L13.0722 6.89537C13.0711 6.75149 13.1271 6.61303 13.228 6.51047C13.3289 6.40791 13.4665 6.34964 13.6104 6.34848Z" fill="white"/>
</svg>
