<svg width="24" height="28" viewBox="0 0 24 28" fill="none" xmlns="http://www.w3.org/2000/svg">
<path d="M21.2521 9.59618C21.5179 9.59618 21.7591 9.71218 21.9497 9.90818C22.1274 10.1175 22.2169 10.3775 22.1909 10.6522C22.1909 10.7428 21.4803 19.7294 21.0744 23.512C20.8203 25.8334 19.3238 27.2427 17.0792 27.2813C15.3532 27.32 13.6662 27.3333 12.0051 27.3333C10.2415 27.3333 8.51684 27.32 6.84275 27.2813C4.67331 27.2293 3.17558 25.7947 2.93439 23.512C2.51684 19.7161 1.81919 10.7428 1.80622 10.6522C1.79326 10.3775 1.88144 10.1175 2.06038 9.90818C2.23674 9.71218 2.4909 9.59618 2.75803 9.59618H21.2521ZM14.753 0.666668C15.9317 0.666668 16.9847 1.48933 17.2894 2.66265L17.5072 3.63597C17.6836 4.4293 18.3709 4.99062 19.1619 4.99062H23.0495C23.5682 4.99062 24 5.42129 24 5.96928V6.47594C24 7.0106 23.5682 7.4546 23.0495 7.4546H0.951805C0.431813 7.4546 0 7.0106 0 6.47594V5.96928C0 5.42129 0.431813 4.99062 0.951805 4.99062H4.83942C5.62913 4.99062 6.3164 4.4293 6.49406 3.63731L6.69764 2.72798C7.01405 1.48933 8.05533 0.666668 9.24703 0.666668H14.753Z" fill="white"/>
</svg>
