<svg width="26" height="26" viewBox="0 0 26 26" fill="none" xmlns="http://www.w3.org/2000/svg">
<path fill-rule="evenodd" clip-rule="evenodd" d="M20.6922 9.58334C21.1224 9.61875 21.4432 9.99479 21.4088 10.425C21.4026 10.4958 20.838 17.4865 20.513 20.4188C20.3109 22.2385 19.1088 23.3458 17.2943 23.3792C15.9057 23.4031 14.5661 23.4167 13.2568 23.4167C11.8453 23.4167 10.4693 23.401 9.10779 23.3729C7.36613 23.3385 6.16092 22.2094 5.96404 20.426C5.63592 17.4677 5.07446 10.4948 5.06925 10.425C5.03384 9.99479 5.35467 9.61771 5.78488 9.58334C6.20884 9.57188 6.59217 9.86979 6.62654 10.299C6.62987 10.3442 6.8594 13.1917 7.10953 16.0091L7.15976 16.5713C7.28574 17.9717 7.41345 19.3173 7.51717 20.2542C7.62863 21.2677 8.1755 21.7906 9.14009 21.8104C11.7443 21.8656 14.4015 21.8688 17.2661 21.8167C18.2911 21.7969 18.8453 21.2844 18.9599 20.2469C19.2828 17.3365 19.8453 10.3698 19.8515 10.299C19.8859 9.86979 20.2661 9.56979 20.6922 9.58334ZM15.443 2.58365C16.3993 2.58365 17.2399 3.22844 17.4868 4.1524L17.7513 5.46594C17.8368 5.89654 18.2147 6.211 18.6522 6.21791L22.0707 6.21802C22.502 6.21802 22.852 6.56802 22.852 6.99927C22.852 7.43052 22.502 7.78052 22.0707 7.78052L18.6828 7.78037C18.6775 7.78047 18.6722 7.78052 18.667 7.78052L18.6415 7.77948L7.8349 7.7804C7.8265 7.78048 7.81809 7.78052 7.80967 7.78052L7.79363 7.77948L4.40613 7.78052C3.97488 7.78052 3.62488 7.43052 3.62488 6.99927C3.62488 6.56802 3.97488 6.21802 4.40613 6.21802L7.82384 6.21698L7.92907 6.21032C8.32103 6.15947 8.64679 5.86177 8.72634 5.46594L8.97946 4.19927C9.23675 3.22844 10.0774 2.58365 11.0336 2.58365H15.443ZM15.443 4.14615H11.0336C10.7836 4.14615 10.5638 4.31386 10.5003 4.55448L10.2576 5.77323C10.2267 5.9276 10.1818 6.07637 10.1243 6.2183H16.3526C16.295 6.07637 16.25 5.9276 16.219 5.77323L15.9659 4.50657C15.9128 4.31386 15.693 4.14615 15.443 4.14615Z" fill="#F37E33"/>
</svg>
