<svg width="9" height="15" viewBox="0 0 9 15" fill="none" xmlns="http://www.w3.org/2000/svg">
<path d="M3.97656 14.1094H4.875V12.8203C7.09375 12.6719 8.67969 11.5234 8.67969 9.57812V9.5625C8.67969 7.85156 7.5625 6.99219 5.42969 6.50781L4.875 6.39062V3.67188C5.75 3.80469 6.33594 4.30469 6.44531 5.14062L6.45312 5.15625L8.52344 5.14844L8.53125 5.14062C8.45312 3.30469 7.03906 2.07031 4.875 1.90625V0.59375H3.97656V1.90625C1.82812 2.03125 0.296875 3.20312 0.296875 5.0625V5.07812C0.296875 6.75781 1.41406 7.67188 3.45312 8.13281L3.97656 8.25781V11.0625C2.90625 10.9609 2.35156 10.4453 2.21875 9.64844V9.64062H0.132812L0.125 9.64844C0.1875 11.5938 1.78125 12.7031 3.97656 12.8281V14.1094ZM2.47656 4.90625V4.89062C2.47656 4.25781 2.99219 3.77344 3.97656 3.66406V6.17969C2.92188 5.89844 2.47656 5.50781 2.47656 4.90625ZM6.5 9.79688V9.8125C6.5 10.5156 5.96094 10.9688 4.875 11.0703V8.46094C6.08594 8.76562 6.5 9.11719 6.5 9.79688Z" fill="#967259"/>
</svg>
