<svg width="19" height="19" viewBox="0 0 19 19" fill="none" xmlns="http://www.w3.org/2000/svg">
<path d="M6.02779 0.657615C6.61579 0.675497 7.18513 0.778164 7.73673 0.965764H7.79179C7.82913 0.983497 7.85713 1.0031 7.87579 1.02083C8.08206 1.0871 8.27713 1.16176 8.46379 1.26443L8.81846 1.4231C8.95846 1.49776 9.12646 1.63683 9.21979 1.69376C9.31313 1.74883 9.41579 1.80576 9.49979 1.87016C10.5367 1.07776 11.7958 0.648431 13.0931 0.657615C13.6821 0.657615 14.2701 0.740831 14.8291 0.928431C18.2741 2.04843 19.5154 5.82843 18.4785 9.13243C17.8905 10.8208 16.9291 12.3618 15.6701 13.6208C13.8678 15.3662 11.8901 16.9155 9.76113 18.2502L9.52779 18.3911L9.28513 18.2408C7.14873 16.9155 5.15979 15.3662 3.34073 13.6115C2.09006 12.3524 1.12779 10.8208 0.530458 9.13243C-0.524208 5.82843 0.717125 2.04843 4.19939 0.908831C4.47006 0.815497 4.74913 0.750164 5.02913 0.713764H5.14113C5.40339 0.675497 5.66379 0.657615 5.92513 0.657615H6.02779ZM14.3438 3.6071C13.9611 3.4755 13.5411 3.68176 13.4011 4.07376C13.2705 4.46576 13.4758 4.8951 13.8678 5.03416C14.4661 5.25816 14.8665 5.8471 14.8665 6.4995V6.52843C14.8487 6.74216 14.9131 6.94843 15.0438 7.1071C15.1745 7.26576 15.3705 7.35816 15.5758 7.37776C15.9585 7.3675 16.2851 7.06043 16.3131 6.6675V6.55643C16.3411 5.24883 15.5487 4.06443 14.3438 3.6071Z" fill="#FF0000"/>
</svg>
