<svg width="26" height="26" viewBox="0 0 26 26" fill="none" xmlns="http://www.w3.org/2000/svg">
<path d="M21.3334 13.2857C21.3334 13.6812 21.0395 14.0081 20.6581 14.0598L20.5521 14.067L6.81879 14.0663L11.7802 19.0075C12.086 19.312 12.0871 19.8066 11.7826 20.1124C11.5059 20.3903 11.0719 20.4165 10.7655 20.1902L10.6778 20.1148L4.37568 13.8398C4.33538 13.7996 4.30037 13.7562 4.27066 13.7103C4.26227 13.6965 4.25373 13.6824 4.24563 13.668C4.23818 13.6556 4.23145 13.6428 4.2251 13.6299C4.21628 13.611 4.20766 13.5915 4.19984 13.5716C4.19348 13.5563 4.18817 13.5414 4.18333 13.5263C4.17758 13.5077 4.17198 13.4878 4.16717 13.4677C4.1636 13.4536 4.16076 13.44 4.15829 13.4264C4.15482 13.4062 4.15186 13.3853 4.14975 13.3641C4.14793 13.3479 4.14684 13.3319 4.14623 13.3158C4.14607 13.3061 4.14587 13.2959 4.14587 13.2857L4.14627 13.2555C4.14687 13.2401 4.14791 13.2248 4.14941 13.2095L4.14587 13.2857C4.14587 13.2364 4.15044 13.1882 4.15917 13.1414C4.1612 13.1303 4.16361 13.1188 4.16628 13.1074C4.17183 13.0838 4.17825 13.0612 4.18563 13.039C4.18926 13.028 4.19348 13.0162 4.19799 13.0045C4.20712 12.981 4.21704 12.9586 4.22796 12.9367C4.23303 12.9265 4.23871 12.9157 4.24466 12.9051C4.25443 12.8877 4.26448 12.8713 4.27512 12.8552C4.28262 12.8438 4.29093 12.832 4.29961 12.8203L4.30637 12.8113C4.32742 12.7838 4.35025 12.7577 4.3747 12.7333L4.37564 12.7326L10.6777 6.45653C10.9834 6.15207 11.4781 6.15309 11.7826 6.45882C12.0594 6.73675 12.0837 7.17083 11.8561 7.4762L11.7803 7.56367L6.82087 12.5038L20.5521 12.5045C20.9836 12.5045 21.3334 12.8543 21.3334 13.2857Z" fill="#2F3548"/>
</svg>
